<svg xmlns="http://www.w3.org/2000/svg" viewBox="0 0 64 64">
  <defs>
    <linearGradient id="bg" x1="0%" y1="0%" x2="100%" y2="100%">
      <stop offset="0%" style="stop-color:#7c3aed"/>
      <stop offset="100%" style="stop-color:#a855f7"/>
    </linearGradient>
    <linearGradient id="shield" x1="0%" y1="0%" x2="100%" y2="100%">
      <stop offset="0%" style="stop-color:#ffffff"/>
      <stop offset="100%" style="stop-color:#e9d5ff"/>
    </linearGradient>
  </defs>
  <rect width="64" height="64" rx="14" fill="url(#bg)"/>
  <path d="M32 10 L48 18 L48 32 C48 42 40 50 32 54 C24 50 16 42 16 32 L16 18 Z" 
        fill="url(#shield)" opacity="0.95"/>
  <rect x="27" y="24" width="10" height="12" rx="2" fill="#7c3aed"/>
  <path d="M29 24 L29 21 C29 18.5 30.5 17 32 17 C33.5 17 35 18.5 35 21 L35 24" 
        fill="none" stroke="#7c3aed" stroke-width="2.5" stroke-linecap="round"/>
  <circle cx="32" cy="30" r="1.5" fill="white"/>
  <line x1="32" y1="31" x2="32" y2="34" stroke="white" stroke-width="1.5" stroke-linecap="round"/>
</svg>
